<?xml version="1.0" encoding="utf-8"?>
<!-- Generator: Adobe Illustrator 27.6.1, SVG Export Plug-In . SVG Version: 6.00 Build 0)  -->
<svg version="1.1" id="Layer_1" xmlns="http://www.w3.org/2000/svg" xmlns:xlink="http://www.w3.org/1999/xlink" x="0px" y="0px"
	 viewBox="0 0 256 256" style="enable-background:new 0 0 256 256;" xml:space="preserve">
<style type="text/css">
	.st0{fill:#FCCF15;}
	.st1{fill:none;stroke:#FFFFFF;stroke-width:13;stroke-linecap:round;stroke-miterlimit:10;}
</style>
<path class="st0" d="M24.58,24.58C33.73,15.44,114.01,9.73,128,9.73s94.24,5.71,103.42,14.86c9.14,9.14,14.86,89.42,14.86,103.42
	s-5.71,94.24-14.86,103.42c-9.14,9.14-89.42,14.86-103.42,14.86s-94.24-5.71-103.42-14.86C15.44,222.27,9.73,141.99,9.73,128
	S15.44,33.76,24.58,24.58z"/>
<path class="st1" d="M174.44,185.94L81.56,80.41h65.08c0,0,27.22,0,27.22,25.25s-25.53,24.35-25.53,24.35H84.08l44.71,56.18"/>
</svg>
